<svg width="20" height="20" viewBox="0 0 533.5 544.3" xmlns="http://www.w3.org/2000/svg">
  <path fill="#4285F4" d="M533.5 278.4a320.1 320.1 0 0 0-4.7-55.3H272v104.8h147.3a126 126 0 0 1-54.6 82.7v68h88.4c51.7-47.6 80.4-117.9 80.4-200.2z"></path>
  <path fill="#34A853" d="M272 544.3c73.8 0 135.8-24.5 181.1-66.7l-88.4-68c-24.1 16.3-55 25.9-92.7 25.9-71 0-131.2-47.9-152.8-112.8H27.9v70.7A272 272 0 0 0 272 544.3z"></path>
  <path fill="#FBBC04" d="M119.2 322.7a163 163 0 0 1 0-101.1v-70.7H27.9a272 272 0 0 0 0 242.5l91.3-70.7z"></path>
  <path fill="#EA4335" d="M272 107.7c39.9-.6 78.1 14.8 107.2 41l80-79.8A271.3 271.3 0 0 0 272 0 272 272 0 0 0 27.9 151l91.3 70.7C140.8 158.3 201 107.7 272 107.7z"></path>
</svg>
